<svg width="18" height="18" viewBox="0 0 18 18" fill="none" xmlns="http://www.w3.org/2000/svg">
<path d="M17.6154 12.4981C17.6154 15.7041 15.7041 17.6154 12.4981 17.6154L11.45 17.6154C10.9656 17.6154 10.5692 17.219 10.5692 16.7346L10.5692 11.6526C10.5692 11.4148 10.763 11.2122 11.0008 11.2122L12.551 11.1858C12.6743 11.177 12.78 11.0889 12.8064 10.9656L13.1147 9.28331C13.1411 9.12477 13.0178 8.97504 12.8504 8.97504L10.9744 9.00146C10.7278 9.00146 10.534 8.80769 10.5252 8.56988L10.49 6.412C10.49 6.27108 10.6045 6.14778 10.7542 6.14778L12.868 6.11254C13.0178 6.11254 13.1323 5.99805 13.1323 5.84832L13.097 3.73445C13.097 3.58472 12.9825 3.47023 12.8328 3.47023L10.4547 3.50547C8.99265 3.53189 7.83004 4.72973 7.85646 6.19181L7.9005 8.61392C7.90931 8.86054 7.71554 9.05431 7.46892 9.06312L6.412 9.08073C6.26227 9.08073 6.14778 9.19523 6.14778 9.34496L6.1742 11.0184C6.1742 11.1682 6.28869 11.2827 6.43842 11.2827L7.49535 11.265C7.74196 11.265 7.93573 11.4588 7.94454 11.6966L8.02381 16.717C8.03262 17.2102 7.63627 17.6154 7.14304 17.6154L5.11727 17.6154C1.91127 17.6154 1.3729e-06 15.7041 1.09185e-06 12.4893L4.47366e-07 5.11727C1.67088e-07 1.91127 1.91127 -1.67088e-07 5.11727 -4.47366e-07L12.4981 -1.09262e-06C15.7041 -1.3729e-06 17.6154 1.91127 17.6154 5.11727L17.6154 12.4981Z" fill="white"/>
</svg>
