<svg width="18" height="18" viewBox="0 0 18 18" fill="none" xmlns="http://www.w3.org/2000/svg">
<path d="M12.5043 0H5.11982C1.91222 0 0 1.91127 0 5.11727V12.4893C0 15.7041 1.91222 17.6154 5.11982 17.6154H12.4955C15.7031 17.6154 17.6154 15.7041 17.6154 12.4981V5.11727C17.6242 1.91127 15.7119 0 12.5043 0ZM8.81208 12.2251C6.9263 12.2251 5.393 10.6925 5.393 8.80769C5.393 6.92285 6.9263 5.39031 8.81208 5.39031C10.6979 5.39031 12.2312 6.92285 12.2312 8.80769C12.2312 10.6925 10.6979 12.2251 8.81208 12.2251ZM14.0288 4.29815C13.9848 4.40385 13.9231 4.50073 13.8438 4.58881C13.7557 4.66808 13.6587 4.72973 13.553 4.77377C13.4472 4.81781 13.3327 4.84423 13.2181 4.84423C12.9802 4.84423 12.7599 4.75615 12.5925 4.58881C12.5132 4.50073 12.4515 4.40385 12.4074 4.29815C12.3634 4.19246 12.3369 4.07796 12.3369 3.96346C12.3369 3.84896 12.3634 3.73446 12.4074 3.62877C12.4515 3.51427 12.5132 3.42619 12.5925 3.33812C12.7951 3.13554 13.1036 3.03865 13.3856 3.10031C13.4472 3.10912 13.5001 3.12673 13.553 3.15315C13.6059 3.17077 13.6587 3.19719 13.7116 3.23242C13.7557 3.25885 13.7997 3.30289 13.8438 3.33812C13.9231 3.42619 13.9848 3.51427 14.0288 3.62877C14.0729 3.73446 14.0993 3.84896 14.0993 3.96346C14.0993 4.07796 14.0729 4.19246 14.0288 4.29815Z" fill="white"/>
</svg>
